<?xml version="1.0" encoding="UTF-8" standalone="no"?>
<svg
   xmlns:dc="http://purl.org/dc/elements/1.1/"
   xmlns:cc="http://creativecommons.org/ns#"
   xmlns:rdf="http://www.w3.org/1999/02/22-rdf-syntax-ns#"
   xmlns:svg="http://www.w3.org/2000/svg"
   xmlns="http://www.w3.org/2000/svg"
   xmlns:sodipodi="http://sodipodi.sourceforge.net/DTD/sodipodi-0.dtd"
   xmlns:inkscape="http://www.inkscape.org/namespaces/inkscape"
   version="1.1"
   x="0"
   y="0"
   width="535.112"
   height="500.71329"
   viewBox="0 0 535.112 500.71329"
   id="svg37133"
   sodipodi:docname="rose-monochrome-art-publicdomainvectors.svg"
   inkscape:version="0.92.4 (5da689c313, 2019-01-14)">
  <metadata
     id="metadata37139">
    <rdf:RDF>
      <cc:Work
         rdf:about="">
        <dc:format>image/svg+xml</dc:format>
        <dc:type
           rdf:resource="http://purl.org/dc/dcmitype/StillImage" />
        <dc:title></dc:title>
      </cc:Work>
    </rdf:RDF>
  </metadata>
  <defs
     id="defs37137" />
  <sodipodi:namedview
     pagecolor="#ffffff"
     bordercolor="#666666"
     borderopacity="1"
     objecttolerance="10"
     gridtolerance="10"
     guidetolerance="10"
     inkscape:pageopacity="0"
     inkscape:pageshadow="2"
     inkscape:window-width="746"
     inkscape:window-height="480"
     id="namedview37135"
     showgrid="false"
     fit-margin-top="0"
     fit-margin-left="0"
     fit-margin-right="0"
     fit-margin-bottom="0"
     inkscape:zoom="0.39267887"
     inkscape:cx="268"
     inkscape:cy="200.469"
     inkscape:window-x="0"
     inkscape:window-y="23"
     inkscape:window-maximized="0"
     inkscape:current-layer="svg37133" />
  <g
     id="Layer_1"
     transform="translate(0,-0.25572448)">
    <path
       d="m 372.389,339.482 c -1.435,-1.039 -2.901,-2.107 -4.369,-3.265 l -51.22,24.059 c 3.771,3.892 7.685,7.902 11.696,11.984 l 54.294,-22.765 c -2.489,-4.257 -6.075,-6.892 -10.401,-10.013 m 14.281,16.551 -0.349,-0.242 -52.401,21.974 c 3.853,3.902 7.776,7.85 11.739,11.821 l 52.779,-19.814 c -2.284,-5.429 -5.958,-9.705 -11.768,-13.739 m 15.644,21.327 -1.346,-0.878 -49.736,18.672 c 4.404,4.391 8.832,8.784 13.249,13.139 l 47.629,-17.008 c -0.337,-5.163 -4.911,-10.732 -9.796,-13.925 m 20.038,38.358 c -0.623,-6.666 -3.691,-13.075 -8.473,-17.449 l -43.721,15.612 c 4.91,4.824 9.776,9.577 14.533,14.198 z m 3.399,7.556 c -0.269,-0.279 -0.543,-0.568 -0.815,-0.852 l -34.425,11.295 c 4.649,4.494 9.162,8.826 13.482,12.946 l 27.136,-9.47 0.092,-0.418 c 1.4,-6.395 -0.896,-8.771 -5.47,-13.501 m 8.203,20.526 -24.115,8.418 c 4.801,4.547 9.303,8.768 13.398,12.558 l 14.425,-6.993 c 0.705,-4.547 -0.498,-9.154 -3.708,-13.983 m 4.914,21.373 -9.951,4.821 c 7.408,6.749 12.982,11.578 15.937,13.731 -0.584,-5.538 -2.151,-12.594 -5.986,-18.552 m -0.055,22.792 c -3.608,-2.827 -8.583,-7.111 -14.585,-12.516 l -1.921,9.605 c 1.826,1.23 6.231,2.547 16.506,2.911 m -23.557,-3.712 -0.099,-0.021 2.883,-14.418 c -3.932,-3.616 -8.182,-7.581 -12.678,-11.827 l -3.92,22.093 c 4.921,3.205 10.001,4.733 13.814,4.173 m -20.619,-6.872 4.491,-25.308 c -4.695,-4.475 -9.597,-9.191 -14.639,-14.078 l -9.492,32.603 c 6.711,4.991 12.286,7.662 19.64,6.783 m -26.533,-8.761 10.563,-36.287 c -4.766,-4.648 -9.626,-9.42 -14.521,-14.257 l -14.667,43.391 c 5.774,4.755 13.068,7.549 18.625,7.153 m -44.886,-21.788 c 5.484,5.249 10.736,10.189 19.616,11.897 l 15.641,-46.269 c -4.535,-4.501 -9.077,-9.035 -13.584,-13.56 l -22.14,47.485 z m -6.644,-4.168 22.93,-49.183 c -4.026,-4.062 -8.008,-8.099 -11.913,-12.081 l -24.546,47.722 c 3.266,5.456 7.063,10.428 13.529,13.542 m -18.789,-18.993 24.52,-47.673 c -4.069,-4.171 -8.033,-8.258 -11.848,-12.223 l -22.327,43.023 0.236,2.022 c 0.812,6.922 3.528,11.226 9.419,14.851 m -15.042,-22.067 22.471,-43.3 c -3.254,-3.405 -6.375,-6.696 -9.339,-9.85 l -18.917,35.001 -0.115,0.867 c -0.641,4.788 1.071,11.684 5.9,17.282 m 35.041,-121.613 c 7.066,0.045 13.993,-0.295 18.33,-2.07 3.958,-1.62 9.335,-4.596 15.074,-8.472 -0.214,0.691 -0.332,1.442 -0.079,2.196 0.7,2.166 2.655,3.332 4.331,4.275 3.522,1.834 7.23,2.889 10.723,4.295 1.757,0.667 3.469,1.418 4.997,2.37 1.545,0.918 2.866,2.13 3.445,3.671 0.598,1.534 0.357,3.374 -0.294,5.09 -0.567,1.779 -1.661,3.363 -2.632,5.025 1.348,-1.368 2.634,-2.84 3.583,-4.599 0.921,-1.724 1.551,-3.89 0.916,-6.037 -0.585,-2.168 -2.276,-3.716 -3.922,-4.838 -1.696,-1.126 -3.511,-1.933 -5.319,-2.655 -3.627,-1.41 -7.35,-2.384 -10.775,-3.809 -1.645,-0.748 -3.386,-1.621 -4.073,-3.125 -0.399,-0.704 -0.272,-1.566 -0.092,-2.409 10.982,-7.539 23.112,-18.324 29.233,-29.547 3.211,-5.887 6.553,-14.749 9.557,-25.451 0.607,-0.415 1.217,-0.827 1.809,-1.262 1.732,-1.389 3.543,-2.709 5.133,-4.272 3.357,-2.947 6.262,-6.369 9.006,-9.893 2.678,-3.58 5.009,-7.423 6.931,-11.452 1.924,-4.022 3.452,-8.266 4.188,-12.65 -1.532,4.157 -3.532,8.072 -5.658,11.885 -2.176,3.789 -4.517,7.477 -7.16,10.947 -2.643,3.461 -5.404,6.853 -8.462,9.985 -1.733,1.852 -3.558,3.619 -5.414,5.367 10.79,-39.392 16.821,-102.585 -4.621,-136.677 -0.952,-1.512 -1.854,-2.979 -2.728,-4.42 8.278,24.715 11.516,50.177 12.282,64.218 1.592,29.193 -11.148,73.775 -21.761,101.907 -7.18,19.027 -28.252,35.63 -56.548,42.407 m 2.876,-34.476 c 8.896,-6.837 16.261,-15.04 22.831,-23.589 13.204,-17.091 24.155,-35.208 37.739,-51.75 -16.161,14.138 -29.008,31.683 -42.83,47.549 -6.996,7.852 -14.17,15.502 -22.485,21.324 -8.208,5.911 -17.517,9.921 -27.379,10.829 -9.836,1.086 -20.072,-0.506 -29.858,-3.463 -9.871,-2.857 -19.288,-7.406 -28.382,-12.5 -9.031,-5.226 -17.713,-11.214 -25.708,-18.044 -4.031,-3.38 -7.844,-7.023 -11.4,-10.907 -1.791,-1.933 -3.466,-3.971 -4.994,-6.117 -1.553,-2.131 -2.947,-4.395 -3.874,-6.909 0.451,2.652 1.557,5.171 2.778,7.575 1.252,2.402 2.693,4.704 4.247,6.919 3.106,4.441 6.662,8.543 10.385,12.474 7.558,7.762 15.972,14.702 25.096,20.652 9.085,6.01 18.936,10.973 29.424,14.521 10.502,3.425 21.759,5.341 33.185,4.238 11.421,-1.206 22.348,-6.02 31.225,-12.802 m -77.956,20.729 c -4.098,-5.863 -9.937,-10.426 -15.808,-14.466 -5.952,-3.976 -11.987,-7.572 -17.638,-11.497 -5.607,-3.987 -10.951,-8.163 -15.62,-13.037 -4.702,-4.832 -8.798,-10.199 -12.535,-15.857 -7.423,-11.414 -13.179,-23.827 -14.978,-37.198 -1.92,-13.368 0.408,-27.28 3.334,-41.166 -3.153,6.374 -5.718,13.045 -7.572,20.03 -1.771,6.991 -2.728,14.341 -2.335,21.73 0.653,14.86 6.496,29.106 14.431,41.229 4.053,6.092 8.637,11.928 14.028,16.976 5.442,4.976 11.38,9.39 17.716,12.899 12.556,7.34 26.032,11.198 36.977,20.357 M 175.007,117.269 c 1.135,7.56 4.186,14.489 7.879,20.786 3.633,6.296 8.481,12.083 13.997,16.938 5.593,4.797 11.883,8.782 18.629,11.471 6.697,2.807 13.717,4.459 20.684,5.551 7,1.08 13.934,1.349 20.838,2.357 -3.19,-1.485 -6.599,-2.441 -9.939,-3.455 -3.349,-0.995 -6.698,-1.888 -9.963,-2.964 -6.573,-2.004 -12.922,-4.431 -18.831,-7.498 -11.871,-6.127 -21.439,-15.385 -28.128,-26.754 -3.354,-5.636 -6.028,-11.618 -7.261,-17.776 -1.31,-6.152 -0.774,-12.442 1.586,-18.21 2.413,-5.75 6.735,-10.87 11.998,-15.007 5.223,-4.24 11.296,-7.546 17.547,-10.721 -6.855,1.406 -13.599,3.741 -19.894,7.301 -6.207,3.608 -12.014,8.719 -15.596,15.559 -3.741,6.757 -4.663,14.932 -3.546,22.422 m 103.789,127.213 c 4.948,-1.344 9.576,-3.888 13.757,-6.974 4.206,-3.08 7.9,-6.797 11.35,-10.697 6.769,-7.93 12.267,-16.843 16.876,-26.12 9.194,-18.608 15.387,-38.534 18.436,-59.195 0.663,-5.194 1.123,-10.434 1.031,-15.841 -0.061,-2.712 -0.225,-5.449 -0.818,-8.349 -0.132,-0.695 -0.354,-1.523 -0.537,-2.159 l -0.58,-1.923 c -0.417,-1.27 -0.864,-2.533 -1.351,-3.778 -3.864,-9.93 -9.572,-19.37 -17.638,-26.608 -7.941,-7.328 -18.238,-12.022 -28.718,-13.317 -10.516,-1.307 -20.987,0.279 -30.65,3.528 10.092,-1.443 20.329,-1.776 29.91,0.542 9.594,2.158 18.225,7.143 24.892,14 6.621,6.922 11.574,15.442 14.681,24.596 0.403,1.139 0.732,2.301 1.102,3.449 l 0.499,1.74 c 0.16,0.588 0.265,0.992 0.365,1.548 0.407,2.095 0.539,4.462 0.559,6.836 0.02,4.776 -0.461,9.701 -1.155,14.592 -1.285,9.82 -3.501,19.606 -6.216,29.223 -2.623,9.659 -6.013,19.096 -9.833,28.335 -3.939,9.179 -8.434,18.162 -14.153,26.337 -5.667,8.145 -12.599,15.694 -21.809,20.235 m -43.827,-51.729 c -6.27,2.914 -12.91,5.107 -19.743,6.771 -6.844,1.636 -13.868,2.695 -20.976,3.559 7.132,0.543 14.337,0.564 21.558,-0.097 7.218,-0.66 14.397,-2.209 21.411,-4.435 6.988,-2.303 13.721,-5.47 20.089,-9.176 6.385,-3.695 12.273,-8.079 17.99,-12.479 2.827,-2.187 5.704,-4.469 8.514,-6.859 2.79,-2.401 5.463,-4.943 8.076,-7.558 5.205,-5.252 10.09,-10.91 14.371,-17.181 4.262,-6.267 7.819,-13.274 9.86,-21.128 1.081,-3.899 1.463,-8.104 1.432,-12.334 -0.058,-1.064 -0.209,-2.132 -0.322,-3.197 -0.153,-1.06 -0.178,-2.139 -0.509,-3.177 -0.062,-0.226 -0.116,-0.447 -0.176,-0.67 4.428,8.877 6.742,18.716 7.138,28.632 0.488,9.986 -0.925,20.025 -3.352,29.832 -2.49,9.833 -6.473,19.223 -10.573,28.682 5.639,-8.59 10.582,-17.806 13.755,-27.754 3.164,-9.922 4.85,-20.423 4.41,-30.958 -0.5,-10.499 -3.184,-21.045 -8.554,-30.17 -4.806,-8.537 -12.442,-15.554 -21.333,-19.228 -0.186,-0.079 -0.371,-0.151 -0.556,-0.227 -0.486,-0.191 -0.956,-0.416 -1.446,-0.587 l 0.186,0.113 c -0.429,-0.159 -0.856,-0.334 -1.282,-0.482 -7.763,-2.529 -15.532,-3.274 -23.142,-3.098 -7.626,0.243 -15.104,1.267 -22.555,3.411 -1.861,0.537 -3.735,1.194 -5.618,1.963 -0.96,0.405 -1.897,0.835 -2.778,1.309 -0.896,0.472 -1.795,0.883 -2.669,1.48 -3.505,2.121 -6.989,5.149 -9.353,8.996 -2.366,3.855 -3.374,7.983 -4.059,11.696 -0.665,3.752 -1.054,7.279 -1.483,10.753 l -1.487,10.594 c -0.216,1.858 -0.471,3.712 -0.388,5.933 -0.009,0.519 0.074,1.132 0.164,1.734 0.052,0.574 0.245,1.238 0.466,1.885 0.158,0.637 0.579,1.297 0.934,1.916 0.375,0.616 0.919,1.104 1.404,1.617 2.143,1.781 4.188,2.256 6.05,2.763 1.894,0.484 3.692,0.759 5.494,1.048 3.57,0.531 7.123,1.031 10.717,1.346 7.154,0.637 14.45,1.073 21.546,-0.107 -3.576,-0.105 -7.093,-0.55 -10.578,-1.181 -3.489,-0.598 -6.946,-1.352 -10.383,-2.195 -3.428,-0.868 -6.867,-1.731 -10.262,-2.688 -1.673,-0.482 -3.357,-0.968 -4.857,-1.563 -1.503,-0.557 -2.933,-1.3 -3.43,-1.967 -0.191,-0.35 -0.353,-0.551 -0.407,-0.974 -0.031,-0.207 -0.098,-0.395 -0.076,-0.719 -0.006,-0.284 -0.034,-0.553 0.014,-0.928 0.073,-1.344 0.431,-3.02 0.799,-4.668 l 2.502,-10.395 c 1.624,-7.04 2.512,-14.224 5.647,-18.47 1.561,-2.122 3.686,-3.786 6.36,-5.167 1.299,-0.675 2.788,-1.383 4.144,-1.884 1.44,-0.51 2.951,-0.981 4.529,-1.361 6.312,-1.54 13.092,-2.195 19.701,-2.115 6.602,0.086 13.209,0.873 18.957,2.931 5.793,1.981 10.363,5.342 12.286,9.817 0.548,1.038 0.817,2.531 1.237,3.839 0.26,0.656 0.237,1.388 0.353,2.081 0.079,0.705 0.21,1.399 0.266,2.11 0.015,2.88 -0.136,5.834 -0.94,8.82 -1.408,5.983 -4.36,11.876 -7.854,17.517 -3.516,5.652 -7.747,11.016 -12.359,16.075 -4.662,5.074 -9.551,9.77 -14.851,14.475 -10.481,9.339 -21.351,17.846 -34.009,23.479 m 31.467,-66.32 c 1.011,1.256 2.091,2.875 3.868,4.761 1.752,-1.892 2.538,-4.076 2.584,-6.484 0.045,-2.377 -0.93,-5.073 -2.77,-6.975 -1.808,-1.928 -4.126,-2.991 -6.336,-3.334 -2.242,-0.314 -4.454,-0.064 -6.748,1.108 1.347,2.208 2.74,3.641 3.93,4.921 l 2.936,3.084 c 0.788,0.837 1.549,1.643 2.536,2.919 m -7.092,6.892 c 1.583,1.397 3.521,2.79 6.127,3.415 0.27,-2.689 0.082,-4.746 -0.393,-6.837 -0.229,-1.03 -0.634,-2.101 -1.24,-3.228 -0.692,-1.129 -1.664,-2.425 -3.162,-3.331 -1.434,-0.88 -3.044,-1.311 -4.36,-1.374 -0.69,-0.047 -1.337,-0.063 -1.933,0.041 -0.617,0.055 -1.222,0.162 -1.77,0.328 -2.27,0.617 -4.256,1.732 -6.115,3.651 2.175,1.577 4.232,2.305 6.015,3.002 1.802,0.633 3.203,1.198 3.653,1.548 0.251,0.15 0.626,0.417 1.164,0.883 0.562,0.528 1.218,1.187 2.014,1.902 m -23.847,-11.754 c -0.887,0.908 -1.723,1.935 -2.525,3.172 -0.757,1.261 -1.527,2.767 -1.745,4.852 -0.231,2.065 0.582,4.583 1.82,6.027 1.029,1.19 2.184,2.282 3.467,3.037 2.562,1.553 5.182,2.172 7.571,2.459 2.407,0.281 4.644,0.259 6.831,0.242 2.211,-0.049 4.283,-0.032 6.65,0.394 -1.344,-2.042 -3.587,-3.348 -5.669,-4.447 -2.125,-1.065 -4.267,-1.834 -6.156,-2.658 -1.894,-0.817 -3.542,-1.659 -4.652,-2.619 -0.576,-0.465 -0.988,-0.968 -1.368,-1.491 -0.162,-0.288 -0.003,-0.047 -0.038,-0.193 -0.075,-0.347 0.771,-2.057 1.906,-3.535 1.143,-1.554 2.52,-3.176 3.901,-4.876 2.703,-3.404 5.799,-7.096 7.29,-11.712 -4.131,2.278 -7.998,4.188 -11.788,6.81 -1.886,1.299 -3.728,2.741 -5.495,4.538 m 26.896,-21.736 c -1.662,-0.709 -3.168,-1.525 -5.53,-2.01 -0.57,-0.12 -1.292,-0.166 -1.924,-0.214 -0.695,0.018 -1.461,0.085 -2.144,0.251 -1.411,0.399 -2.536,1.071 -3.377,1.733 -1.696,1.349 -2.722,2.653 -3.848,3.955 -1.082,1.298 -2.107,2.598 -3.137,3.905 -2.005,2.665 -4.146,5.205 -6.098,8.054 3.142,-1.398 6.066,-3.146 8.91,-5.005 1.408,-0.94 2.79,-1.922 4.124,-2.895 1.319,-0.93 2.669,-1.971 3.731,-2.472 0.527,-0.276 0.914,-0.324 1.12,-0.318 0.127,0.037 0.2,0.062 0.326,0.072 0.183,0.089 0.299,0.089 0.529,0.183 0.867,0.325 2.298,1.13 3.6,1.884 1.417,0.841 2.689,1.583 3.879,2.42 1.2,0.836 2.372,1.707 3.436,2.688 4.306,3.811 7.74,8.726 9.264,14.223 0.36,1.375 0.59,2.703 0.654,4.18 0.067,1.479 0,3.061 -0.106,4.699 -0.055,1.659 -0.261,3.335 -0.179,5.162 0.061,0.898 0.132,1.882 0.612,2.836 0.256,0.468 0.711,0.893 1.201,1.014 0.49,0.177 0.945,0.055 1.36,-0.009 -1.976,-0.528 -1.339,-2.089 -0.841,-3.512 0.566,-1.457 1.246,-2.983 1.912,-4.561 0.634,-1.593 1.217,-3.271 1.597,-5.096 0.395,-1.823 0.522,-3.829 0.389,-5.736 -0.599,-7.663 -4.647,-14.642 -10.247,-19.564 -1.406,-1.232 -2.909,-2.337 -4.469,-3.332 -1.594,-0.964 -3.225,-1.838 -4.744,-2.535 m 28.821,20.042 c -0.716,1.74 -2.073,3.461 -3.776,5.431 -0.791,1.005 -1.764,2.081 -2.407,3.472 -0.321,0.674 -0.535,1.489 -0.513,2.235 0.019,0.78 0.321,1.443 0.647,2.008 0.173,-1.386 0.85,-2.254 1.741,-2.818 0.907,-0.586 1.924,-1.087 3.111,-1.618 2.257,-1.077 4.841,-2.613 6.835,-5.133 2.036,-2.499 3.055,-5.864 3.182,-8.893 0.124,-0.743 -0.01,-1.632 -0.067,-2.471 l -0.127,-1.27 -0.365,-1.307 c -0.256,-0.874 -0.559,-1.728 -1.072,-2.515 -0.46,-0.812 -0.937,-1.612 -1.577,-2.238 -2.457,-2.707 -5.439,-4.029 -8.138,-4.885 -2.731,-0.811 -5.349,-1.19 -7.928,-1.44 -5.169,-0.443 -9.994,-0.331 -15.289,-0.44 4.122,3.438 9.244,5.275 13.875,6.942 2.317,0.845 4.597,1.61 6.598,2.488 1.974,0.888 3.626,1.895 4.521,2.957 0.922,1.014 1.342,2.218 1.515,4.076 0.161,1.977 -0.045,3.701 -0.766,5.419 m -76.143,-6.205 c 1.242,-9.77 5.034,-19.595 9.745,-28.724 2.347,-4.607 4.98,-9.094 7.835,-13.452 1.422,-2.174 2.938,-4.33 4.447,-6.435 0.998,-1.427 2.835,-2.78 4.937,-3.786 4.23,-2.078 9.309,-3.064 14.356,-3.563 5.085,-0.502 10.285,-0.354 15.433,0.3 10.32,1.241 20.482,4.637 29.598,10.26 -8.011,-7.168 -18.209,-11.894 -28.875,-14.367 -5.36,-1.189 -10.871,-1.81 -16.446,-1.751 -5.575,0.085 -11.223,0.831 -16.779,3.075 -2.752,1.153 -5.573,2.717 -7.891,5.514 -1.708,2.151 -3.326,4.316 -4.915,6.547 -3.167,4.452 -6.119,9.075 -8.797,13.882 -2.668,4.815 -4.963,9.862 -6.886,15.089 -1.888,5.272 -3.428,10.583 -4.185,16.384 -1.362,11.495 1.198,23.558 7.567,33.297 6.366,9.728 16.067,16.943 26.677,20.678 5.448,2.071 11.825,2.651 17.487,1.076 5.694,-1.488 10.642,-4.441 14.983,-7.809 4.326,-3.43 8.149,-7.272 11.794,-11.194 1.825,-1.961 3.621,-3.934 5.48,-5.823 1.859,-1.885 3.73,-3.798 6.093,-5.069 -2.547,0.881 -4.776,2.524 -6.937,4.113 -2.138,1.643 -4.179,3.382 -6.242,5.075 -4.107,3.399 -8.184,6.78 -12.583,9.514 -4.345,2.771 -8.99,4.981 -13.76,5.778 -4.769,0.841 -9.488,0.192 -13.887,-1.802 -9.223,-4.038 -17.31,-10.409 -22.322,-18.812 -5.113,-8.291 -7.212,-18.321 -5.927,-27.995 M 184.32,51.287 c 9.38,-5.428 18.948,-10.381 28.848,-14.418 9.853,-4.116 20.036,-7.33 30.355,-9.287 10.32,-1.861 20.824,-2.636 30.979,-1.077 10.131,1.445 19.94,4.838 28.41,10.511 4.271,2.761 8.288,5.947 11.97,9.533 3.72,3.665 7.21,7.586 10.538,11.628 6.661,8.102 12.212,17.085 17.058,26.482 4.761,9.445 8.652,19.39 12.033,29.588 l 5.104,15.384 c 0.902,2.565 1.818,5.134 2.911,7.645 1.132,2.469 2.387,5.015 4.376,6.895 -1.601,-2.199 -2.449,-4.758 -3.168,-7.332 -0.726,-2.575 -1.3,-5.201 -1.85,-7.835 -1.083,-5.28 -2.168,-10.583 -3.363,-15.895 -2.473,-10.586 -5.598,-21.154 -10.043,-31.262 -4.329,-10.16 -10.06,-19.758 -16.743,-28.648 -3.392,-4.416 -7.104,-8.561 -11.013,-12.542 -4.011,-4.003 -8.434,-7.63 -13.207,-10.771 -9.598,-6.224 -20.741,-10.039 -32.005,-11.335 -11.296,-1.238 -22.649,-0.171 -33.398,2.582 -10.797,2.644 -21.044,6.878 -30.712,11.985 -9.631,5.191 -18.765,11.204 -27.08,18.169 m 192.645,80.984 c -0.083,5.011 -0.465,10.002 -1.182,14.926 -0.678,4.93 -1.82,9.773 -3.462,14.424 -1.692,4.624 -3.972,9.053 -7.16,12.831 -3.137,3.814 -7.229,6.878 -11.883,8.994 4.969,-1.23 9.628,-3.924 13.397,-7.577 3.763,-3.674 6.643,-8.212 8.711,-13.024 4.171,-9.679 5.496,-20.188 5.821,-30.478 0.164,-10.331 -0.76,-20.608 -2.51,-30.709 -1.742,-10.096 -4.227,-20.057 -7.695,-29.671 1.757,10.057 3.307,20.08 4.414,30.136 1.063,10.05 1.78,20.123 1.549,30.148 m -76.518,210.894 c 3.483,3.703 7.196,7.602 11.09,11.656 l 50.482,-23.712 c -4.819,-4.135 -9.564,-7.843 -14.221,-11.11 -8.212,3.091 -28.422,13.12 -47.351,23.166 m -5.069,-5.425 c 23.573,-12.585 37.228,-19.135 45.23,-22.478 -6.285,-3.871 -12.379,-6.897 -18.243,-9.068 -6.959,3.641 -22.456,12.379 -36.869,20.68 2.925,3.295 6.239,6.937 9.882,10.866 m 4.771,-35.611 c -5.594,4.9 -13.358,10.696 -22.064,16.105 0.802,0.978 1.682,2.028 2.616,3.126 15.526,-8.955 25.478,-14.555 31.899,-18.054 -4.312,-0.916 -8.467,-1.309 -12.451,-1.177 m -33.868,48.223 10.465,-22.856 c -1.786,-2.05 -3.398,-3.937 -4.786,-5.617 -1.528,0.87 -3.075,1.718 -4.638,2.543 l 0.104,2.827 -2.292,1.599 c -2.05,2.941 -2.738,15.498 1.147,21.504 m 6.279,26.159 18.15,-33.586 c -3.162,-3.405 -6.101,-6.612 -8.761,-9.566 l -13.218,28.87 -0.257,-0.117 c -0.962,3.577 -0.714,8.344 4.086,14.399 m -42.255,-2.344 c -4.339,-4.834 -16.754,-16.117 -28.865,-26.533 -1.622,3.415 -3.318,7.042 -5.071,10.838 l 30.09,28.545 c 1.56,-4.454 2.841,-8.742 3.846,-12.85 m -5.746,18.399 -30.542,-28.973 c -1.676,3.666 -3.395,7.463 -5.134,11.345 l 30.466,31.443 c 2.277,-2.876 3.13,-6.076 4.121,-9.917 0.33,-1.269 0.688,-2.574 1.089,-3.898 m -8.616,17.966 -29.404,-30.35 c -1.661,3.728 -3.334,7.514 -5.012,11.335 l 28.012,31.195 c 3.142,-3.054 5.11,-6.757 6.331,-11.872 z M 205.578,426.28 179.18,396.882 c -1.848,4.241 -3.692,8.499 -5.514,12.735 l 24.665,28.376 c 3.488,-1.628 6.112,-6.292 7.002,-10.545 z m -11.598,14.84 -22.649,-26.058 c -2.011,4.708 -3.985,9.363 -5.897,13.91 l 18.755,22.741 c 4.449,-2.238 8.057,-6.098 9.791,-10.593 m -13.734,14.197 -17.144,-20.786 c -1.854,4.435 -3.633,8.733 -5.315,12.842 l 13.904,16.231 0.316,-0.05 c 4.808,-0.761 5.834,-2.994 7.87,-7.441 0.121,-0.261 0.245,-0.53 0.369,-0.796 m -12.368,12.033 -12.357,-14.425 c -1.851,4.557 -3.554,8.819 -5.072,12.681 l 8.748,8.097 c 3.306,-0.749 6.219,-2.866 8.681,-6.353 m -13.469,9.191 -6.036,-5.588 c -2.671,6.959 -4.506,12.129 -5.198,14.759 3.679,-1.904 8.142,-4.899 11.234,-9.171 m -15.805,6.13 c 0.983,-3.265 2.603,-7.87 4.722,-13.488 l -7.174,1.271 c -0.357,1.594 -0.075,5.005 2.452,12.217 m -3.803,-17.317 -0.017,-0.077 10.771,-1.906 c 1.439,-3.703 3.035,-7.72 4.758,-11.984 l -16.365,3.268 c -0.886,4.278 -0.567,8.212 0.853,10.699 m 40.066,-71.848 -38.886,-2.48 -0.18,0.446 c -2.152,5.222 -4.151,10.196 -2.93,16.807 l 36.28,-1.693 c 1.892,-4.36 3.803,-8.732 5.716,-13.08 m -14.012,32.445 c 1.927,-4.56 3.919,-9.217 5.944,-13.915 l -34.028,1.589 c -1.728,5.286 -1.691,11.09 0.089,14.835 z m -26.88,23.257 18.747,-3.741 c 1.828,-4.462 3.768,-9.135 5.788,-13.95 l -25.155,2.254 c -1.638,5.998 -1.984,10.59 0.62,15.437 m 2.916,-63.469 40.273,2.568 c 1.723,-3.889 3.44,-7.739 5.141,-11.52 l -39.701,-4.082 c -2.893,3.739 -5.307,7.716 -5.713,13.034 m 8.069,-18.156 39.658,4.077 c 1.785,-3.946 3.543,-7.796 5.258,-11.513 l -35.844,-3.817 -1.337,0.711 c -4.513,2.403 -6.815,5.533 -7.735,10.542 m 11.208,-16.388 36.075,3.841 c 1.478,-3.176 2.914,-6.231 4.296,-9.138 l -29.365,-3.626 -0.631,0.153 c -3.487,0.855 -7.804,3.908 -10.375,8.77 m 14.618,-13.853 28.184,3.482 c 1.505,-3.111 2.928,-6.015 4.255,-8.657 l -23.577,-1.342 0.013,-0.211 c -2.739,0.303 -5.978,1.759 -8.875,6.728 m 16.427,-11.427 18.664,1.06 c 0.576,-1.103 1.129,-2.151 1.652,-3.113 -1.126,-1.275 -2.219,-2.51 -3.296,-3.715 l -0.709,0.306 -1.729,-1.155 c -2.583,-0.616 -11.47,2.303 -14.582,6.617 m 45.127,19.346 c -0.547,-3.323 -1.437,-6.38 -2.656,-9.159 -4.25,-0.034 -8.155,-0.808 -11.556,-2.481 6.531,5.268 11.06,8.991 14.212,11.64 m -28.514,-2.608 c 15.098,12.922 23.331,20.606 27.815,25.242 0.979,-5.4 1.427,-10.44 1.342,-15.09 -4.406,-3.833 -14.654,-12.202 -24.307,-19.937 -1.489,2.918 -3.115,6.199 -4.85,9.785 m 7.371,-14.601 0.024,0.02 -0.021,-0.024 -0.003,0.004 m 323.915,21.721 c -3.565,2.611 -7.201,5.218 -11.021,7.488 -1.921,1.119 -3.877,2.167 -5.835,3.249 -0.979,0.546 -1.971,1.059 -2.965,1.575 l -3.052,1.393 -6.184,2.701 c -2.109,0.804 -4.26,1.492 -6.407,2.244 l -3.237,1.087 -3.322,0.841 c -2.227,0.53 -4.437,1.198 -6.714,1.571 l -6.871,1.099 c -2.307,0.311 -4.656,0.366 -6.996,0.553 -2.339,0.227 -4.706,0.136 -7.072,0.075 l -3.553,-0.11 -3.553,-0.36 c -1.186,-0.118 -2.375,-0.244 -3.557,-0.395 -1.182,-0.163 -2.348,-0.44 -3.524,-0.656 -2.349,-0.458 -4.707,-0.896 -6.999,-1.595 -2.301,-0.659 -4.612,-1.31 -6.828,-2.196 -2.241,-0.83 -4.494,-1.634 -6.631,-2.667 -2.162,-0.993 -4.307,-2.009 -6.349,-3.172 l -3.103,-1.689 c -1.002,-0.601 -1.998,-1.204 -2.98,-1.837 -1.995,-1.226 -3.896,-2.537 -5.767,-3.876 -1.914,-1.303 -3.714,-2.686 -5.494,-4.108 -7.14,-5.626 -13.538,-11.727 -19.657,-17.655 -4.733,-4.547 -9.309,-9.054 -14.144,-13.016 -2.39,-0.161 -4.831,-0.428 -7.318,-0.799 2.293,1.892 4.597,3.843 6.923,5.919 1.931,1.723 3.992,3.211 6.172,4.788 5.594,4.04 11.889,8.587 15.571,17.475 7.923,5.859 12.971,12.719 15.709,21.355 7.031,5.233 13.157,13.696 13.206,22.742 5.827,6.245 9.529,14.682 10.233,23.365 l 0.169,0.174 c 4.589,4.745 10.216,10.567 8.874,21.226 6.329,9.074 7.039,17.186 6.112,23.103 9.042,14.74 8.345,34.56 6.592,37.256 l -2.108,3.242 -3.636,-0.721 c -0.431,-0.017 -1.084,0.009 -1.899,0.021 -11.08,0.149 -23.081,-0.248 -30.347,-3.991 -7.112,1.252 -15.57,-1.097 -23.445,-6.558 -10.865,0.742 -18.864,-3.902 -25.529,-8.834 -8.501,0.463 -18.477,-3.216 -26.462,-9.836 -13.097,-2.054 -20.664,-9.297 -26.792,-15.165 l -0.946,-0.9 c -11.418,-4.445 -17.305,-12.623 -21.773,-20.275 -8.674,-5.1 -13.574,-11.987 -15.241,-21.448 -7.748,-6.959 -12.346,-17.222 -12.064,-26.827 -9.466,-10.663 -9.779,-20.354 -7.532,-27.557 -5.626,-7.293 -5.793,-17.958 -5.678,-21.431 0.043,-1.327 0.188,-3.311 0.549,-5.482 -3.493,1.338 -6.961,2.452 -10.342,3.285 1.126,1.482 2.103,3.099 2.985,4.705 1.751,3.17 3.104,6.503 4.319,9.849 2.393,6.713 4.101,13.564 5.526,20.415 2.787,13.723 4.362,27.501 5.447,41.228 1.085,13.729 1.564,27.421 1.945,41.049 0.189,6.812 0.353,13.608 0.701,20.364 0.159,3.383 0.422,6.741 0.836,10.074 0.212,1.666 0.487,3.327 0.927,4.931 0.403,1.632 0.967,3.205 1.972,4.665 -1.596,-0.813 -2.857,-2.241 -3.987,-3.672 -1.093,-1.474 -1.986,-3.06 -2.834,-4.662 -1.685,-3.218 -2.944,-6.582 -4.086,-9.95 -2.239,-6.758 -3.815,-13.619 -5.146,-20.476 -2.582,-13.727 -4.08,-27.477 -5.141,-41.173 -1.064,-13.7 -1.616,-27.36 -2.19,-40.945 -0.275,-6.795 -0.566,-13.569 -1.07,-20.304 -0.241,-3.374 -0.597,-6.718 -1.088,-10.052 -0.24,-1.672 -0.576,-3.32 -1.022,-4.943 -0.05,-0.21 -0.13,-0.415 -0.186,-0.623 -0.571,0.124 -1.141,0.233 -1.706,0.337 5.373,14.668 3.659,34.052 -5.16,57.759 -0.671,1.801 -1.144,3.632 -1.647,5.569 -1.282,4.969 -2.729,10.561 -7.89,15.516 -1.913,7.075 -5.297,12.431 -10.537,16.664 -1.722,6.285 -5.923,12.821 -12.177,15.301 -2.745,5.728 -7.59,10.578 -13.412,13.416 l -0.077,0.164 c -2.045,4.464 -4.553,9.938 -12.299,11.893 -4.571,6.84 -9.994,9.529 -14.348,10.488 -7.408,9.788 -20.44,14.687 -23.63,14.687 -0.15,0 -6.472,4.251 -6.472,4.251 l 0.132,-10.348 c 0.642,-8.759 -3.921,-14.941 -3.331,-20.642 -2.795,-4.59 -3.458,-11.085 -1.805,-18.015 -3.45,-7.334 -2.403,-14.124 -0.792,-20.073 -2.63,-5.763 -2.777,-13.669 -0.352,-20.992 -2.121,-9.629 0.845,-16.827 3.248,-22.661 l 0.369,-0.903 c -0.009,-9.111 4.062,-15.402 8.148,-20.569 1.184,-7.389 4.63,-12.645 10.732,-16.362 2.723,-7.251 8.586,-13.216 15.317,-15.62 4.82,-9.445 11.448,-12.284 17.047,-12.676 3.529,-5.874 10.871,-8.876 13.307,-9.739 0.82,-0.289 2.009,-0.668 3.372,-0.984 -1.254,-1.337 -2.493,-2.631 -3.713,-3.883 -3.724,0.817 -7.353,1.745 -10.94,3.046 -8.103,2.73 -16.015,6.32 -24.019,9.897 -15.98,7.201 -32.424,14.664 -49.963,19.997 -17.47,5.357 -36.084,8.686 -54.727,7.948 -9.295,-0.367 -18.545,-1.612 -27.469,-3.943 C 16.504,342.017 7.92,338.691 0,334.219 c 9.099,0.698 17.886,1.351 26.599,1.408 8.711,0.014 17.286,-0.489 25.757,-1.466 16.958,-1.874 33.459,-6.02 49.961,-11.033 16.519,-4.991 33.005,-11.118 50.454,-16.038 8.741,-2.37 17.724,-4.543 27.091,-5.228 2.226,-0.196 4.481,-0.259 6.736,-0.216 -12.255,-11.609 -24.33,-19.79 -44.206,-29.565 -30.741,-15.117 -19.858,-7.279 -39.122,-70.958 3.389,0.008 6.778,0.159 10.149,0.487 5.558,0.515 11.077,1.463 16.429,2.993 2.673,0.764 5.306,1.713 7.786,2.975 2.512,1.2 4.855,2.758 6.882,4.739 -3.45,-4.592 -8.836,-7.35 -14.166,-9.26 -5.396,-1.952 -11.057,-2.982 -16.727,-3.56 -3.637,-0.322 -7.292,-0.43 -10.938,-0.3 -0.861,-2.815 -1.771,-5.754 -2.753,-8.854 -10.792,-34.053 -9.339,-44.59 -4.454,-50.074 1.803,0.085 3.6,0.215 5.382,0.436 6.296,0.807 12.654,2.442 17.411,6.47 4.845,3.95 7.455,9.965 10.209,15.791 1.392,2.931 2.832,5.876 4.556,8.664 0.33,0.512 0.679,1.014 1.026,1.517 5.824,17.625 16.18,32.735 26.728,46.035 8.98,11.322 22.444,24.515 39.086,36.469 2.08,2.238 4.287,4.336 6.177,6.732 1.157,1.366 2.378,2.671 3.498,4.063 l 3.295,4.221 c 4.28,5.715 8.175,11.684 12.041,17.743 1.96,3.009 3.981,6.016 6.205,8.902 2.346,2.779 4.793,5.612 7.958,7.576 1.474,1.131 3.193,1.839 4.857,2.62 0.81,0.45 1.731,0.605 2.6,0.887 l 2.637,0.751 c 1.811,0.208 3.605,0.5 5.405,0.63 1.808,0.021 3.611,0.015 5.405,-0.011 -1.791,-0.204 -3.574,-0.391 -5.349,-0.55 -1.761,-0.286 -3.491,-0.729 -5.221,-1.082 -1.648,-0.627 -3.376,-1.049 -4.934,-1.851 -1.543,-0.833 -3.124,-1.578 -4.456,-2.727 -5.633,-4.161 -9.427,-10.329 -13.326,-16.3 -3.9,-6.013 -7.908,-12.056 -12.547,-17.599 -3.819,-4.655 -8.1,-8.895 -12.611,-12.839 26.719,18.822 61.351,34.24 98.779,33.829 -2.878,-2.473 -5.309,-4.96 -7.163,-7.394 l -0.04,-0.063 c -6.504,0.173 -13.228,-0.136 -20.129,-1.022 -49.811,-6.408 -104.56,-46.708 -130.344,-101.767 -25.782,-55.06 5.263,-68.054 30.209,-137.074 10.861,-30.053 31.047,-25.122 102.789,-33.967 28.743,-3.546 14.33,-18.579 60.506,0 12.783,5.142 22.954,14.892 31.026,26.908 -2.707,-10.767 1.527,-11.82 7.189,-3.556 8.146,11.889 34.499,10.615 36.091,32.907 1.593,22.291 19.638,61.036 24.946,72.183 5.307,11.145 11.676,73.245 -9.554,90.758 -19.794,16.332 -10.535,77.394 -33.281,89.452 1.613,1.037 3.205,2.082 4.772,3.128 7.298,4.946 14.091,10.023 20.941,14.539 3.438,2.236 6.798,4.493 10.288,6.382 l 2.579,1.49 2.615,1.357 c 1.727,0.953 3.504,1.742 5.284,2.519 14.116,6.438 29.403,9.161 45.642,8.852 16.245,-0.337 32.971,-3.435 50.457,-6.505 M 101.016,139.078 c -1.406,-0.087 -2.809,-0.111 -4.213,-0.117 6.098,-5.362 15.596,-6.306 15.867,-29.29 0.48,-40.914 11.109,-27.627 31.987,-33.967 2.145,-0.653 6.551,1.835 5.607,3.36 -22.174,35.798 -24.391,65.049 -17.573,89.557 -0.974,-2.067 -1.867,-4.18 -2.724,-6.309 -1.197,-3.008 -2.474,-6.019 -4.061,-8.936 -1.632,-2.879 -3.648,-5.662 -6.274,-7.828 -2.619,-2.159 -5.686,-3.724 -8.864,-4.727 -3.195,-0.981 -6.474,-1.528 -9.752,-1.743"
       id="path37130"
       inkscape:connector-curvature="0"
       style="fill:#0b0b09" />
  </g>
</svg>
